<svg width="350" height="71" viewBox="0 0 350 71" fill="none" xmlns="http://www.w3.org/2000/svg">
<g clip-path="url(#clip0_1306_6391)">
<path fill-rule="evenodd" clip-rule="evenodd" d="M7.61463 16.2532C14.1755 14.1565 22.5915 12.5119 25.1422 15.6502C25.224 15.7598 25.4013 15.6776 25.3604 15.5406C23.4917 7.40027 12.5523 8.01696 7.12358 10.0041C7.06902 10.0178 7.02811 10.0726 7.04175 10.1274C7.31455 11.6897 7.46459 13.2794 7.46459 15.1294V15.1297C7.46459 15.4722 7.46459 15.8147 7.45095 16.1436C7.45095 16.2258 7.53279 16.2806 7.61463 16.2532ZM19.3997 24.5442C19.2496 24.7087 19.4815 24.928 19.6588 24.7909C32.9443 13.9372 19.3997 13.759 7.39639 18.6103C7.35547 18.624 7.32819 18.6651 7.32819 18.7062C6.8917 22.1597 5.95054 24.6128 4.90025 26.1202C4.83205 26.2162 4.94117 26.3395 5.06393 26.2847C24.2146 17.5277 22.0458 21.8308 19.3997 24.5442ZM3.69992 2.9327C3.56352 2.9327 3.5226 3.08345 3.63172 3.13826C4.60017 3.87829 5.58225 5.2076 6.37338 7.70177C6.38702 7.75658 6.45522 7.7977 6.52342 7.78399C16.2215 5.76947 20.4363 8.07178 21.9913 9.4285C22.0868 9.52443 22.2505 9.40109 22.1823 9.29146C17.2204 2.94787 7.76136 2.93752 4.1021 2.93352C3.95896 2.93336 3.8247 2.93322 3.69992 2.9327ZM3.15432 0H24.9648C26.8335 0 28.3476 1.54858 28.3612 3.45346V25.6817C28.3612 27.5866 26.8335 29.1352 24.9648 29.1352H3.15432C1.27198 29.1352 -0.242065 27.5866 -0.242065 25.6817V3.45346C-0.242065 1.54858 1.28562 0 3.15432 0ZM39.3279 13.4438H45.2067C48.4394 13.4438 49.7625 11.3608 49.7625 9.03107C49.7625 6.70136 48.4394 4.61832 45.2067 4.61832H39.3279V13.4438ZM33.8036 0H45.4523C51.5085 0 55.1094 3.74125 55.1094 9.04478C55.1094 14.3346 51.5085 18.0759 45.4523 18.0759H39.3142V29.1489H33.8036V0ZM94.0792 21.8308V1.85004H99.1669V8.18139H105.005V12.4708H99.1669V21.3374C99.1669 23.4616 100.285 24.5442 102.195 24.5442H105.019V29.1625H101.622C97.0664 29.1625 94.0792 26.4902 94.0792 21.8308ZM111.62 18.6514C111.62 22.4475 113.939 25.065 117.417 25.065C120.855 25.065 123.187 22.4475 123.174 18.6514C123.174 14.8554 120.855 12.2379 117.417 12.2379C113.939 12.2379 111.62 14.8554 111.62 18.6514ZM106.478 18.6514C106.478 12.4023 111.034 7.82512 117.417 7.82512C123.76 7.82512 128.316 12.4023 128.316 18.6514C128.316 24.9006 123.76 29.4778 117.417 29.4778C111.034 29.4778 106.478 24.9006 106.478 18.6514ZM66.1852 25.065C62.707 25.065 60.3882 22.4475 60.3882 18.6514C60.3882 14.8554 62.707 12.2379 66.1852 12.2379C69.6225 12.2379 71.9413 14.8554 71.9413 18.6514C71.9413 22.4475 69.6225 25.065 66.1852 25.065ZM66.1852 7.82512C59.8016 7.82512 55.2458 12.4023 55.2458 18.6514C55.2458 24.9006 59.8016 29.4778 66.1852 29.4778C72.5278 29.4778 77.0836 24.9006 77.0836 18.6514C77.0836 12.4023 72.5142 7.82512 66.1852 7.82512ZM84.4357 29.1488V15.9928C84.4357 13.8686 85.5542 12.786 87.4638 12.786H91.5285V8.1677H86.8909C82.3351 8.1677 79.3479 10.8263 79.3479 15.4994V29.1625H84.4357V29.1488Z" fill="#00A1FC"/>
</g>
<defs>
<clipPath id="clip0_1306_6391">
<rect width="138" height="45" fill="white"/>
</clipPath>
</defs>
</svg>
