<svg width="129" height="30" viewBox="0 0 129 30" fill="none" xmlns="http://www.w3.org/2000/svg">
<path fill-rule="evenodd" clip-rule="evenodd" d="M7.61475 16.2532C14.1756 14.1565 22.5916 12.5119 25.1423 15.6502C25.2241 15.7598 25.4014 15.6776 25.3605 15.5406C23.4918 7.40027 12.5524 8.01696 7.1237 10.0041C7.06914 10.0178 7.02823 10.0726 7.04187 10.1274C7.31467 11.6897 7.46471 13.2794 7.46471 15.1294V15.1297C7.46471 15.4722 7.46471 15.8147 7.45107 16.1436C7.45107 16.2258 7.53291 16.2806 7.61475 16.2532ZM19.3998 24.5442C19.2497 24.7087 19.4816 24.928 19.6589 24.7909C32.9444 13.9372 19.3998 13.759 7.39651 18.6103C7.35559 18.624 7.32831 18.6651 7.32831 18.7062C6.89182 22.1597 5.95066 24.6128 4.90037 26.1202C4.83217 26.2162 4.94129 26.3395 5.06405 26.2847C24.2147 17.5277 22.0459 21.8308 19.3998 24.5442ZM3.70004 2.9327C3.56364 2.9327 3.52272 3.08345 3.63184 3.13826C4.60029 3.87829 5.58237 5.2076 6.3735 7.70177C6.38714 7.75658 6.45534 7.7977 6.52354 7.78399C16.2216 5.76947 20.4364 8.07178 21.9914 9.4285C22.0869 9.52443 22.2506 9.40109 22.1824 9.29146C17.2205 2.94787 7.76148 2.93752 4.10222 2.93352C3.95908 2.93336 3.82482 2.93322 3.70004 2.9327ZM3.15444 0H24.9649C26.8336 0 28.3477 1.54858 28.3613 3.45346V25.6817C28.3613 27.5866 26.8336 29.1352 24.9649 29.1352H3.15444C1.2721 29.1352 -0.241943 27.5866 -0.241943 25.6817V3.45346C-0.241943 1.54858 1.28574 0 3.15444 0ZM39.328 13.4438H45.2068C48.4395 13.4438 49.7626 11.3608 49.7626 9.03107C49.7626 6.70136 48.4395 4.61832 45.2068 4.61832H39.328V13.4438ZM33.8037 0H45.4524C51.5086 0 55.1095 3.74125 55.1095 9.04478C55.1095 14.3346 51.5086 18.0759 45.4524 18.0759H39.3143V29.1489H33.8037V0ZM94.0793 21.8308V1.85004H99.167V8.18139H105.005V12.4708H99.167V21.3374C99.167 23.4616 100.285 24.5442 102.195 24.5442H105.019V29.1625H101.622C97.0665 29.1625 94.0793 26.4902 94.0793 21.8308ZM111.62 18.6514C111.62 22.4475 113.939 25.065 117.417 25.065C120.855 25.065 123.187 22.4475 123.174 18.6514C123.174 14.8554 120.855 12.2379 117.417 12.2379C113.939 12.2379 111.62 14.8554 111.62 18.6514ZM106.478 18.6514C106.478 12.4023 111.034 7.82512 117.417 7.82512C123.76 7.82512 128.316 12.4023 128.316 18.6514C128.316 24.9006 123.76 29.4778 117.417 29.4778C111.034 29.4778 106.478 24.9006 106.478 18.6514ZM66.1853 25.065C62.7071 25.065 60.3883 22.4475 60.3883 18.6514C60.3883 14.8554 62.7071 12.2379 66.1853 12.2379C69.6226 12.2379 71.9414 14.8554 71.9414 18.6514C71.9414 22.4475 69.6226 25.065 66.1853 25.065ZM66.1853 7.82512C59.8017 7.82512 55.2459 12.4023 55.2459 18.6514C55.2459 24.9006 59.8017 29.4778 66.1853 29.4778C72.5279 29.4778 77.0837 24.9006 77.0837 18.6514C77.0837 12.4023 72.5143 7.82512 66.1853 7.82512ZM84.4358 29.1488V15.9928C84.4358 13.8686 85.5543 12.786 87.4639 12.786H91.5286V8.1677H86.891C82.3352 8.1677 79.348 10.8263 79.348 15.4994V29.1625H84.4358V29.1488Z" fill="#00A1FC"/>
</svg>
