<svg xmlns="http://www.w3.org/2000/svg" width="260.906" height="66.534" viewBox="0 0 260.906 66.534">
  <g id="logo" transform="translate(0 -0.001)">
    <path id="wave-right" d="M19.756.513c24.064-4.995,54.51,9.728,72.107,4.452,1.137-.34,1.438.227-.272.9C85.436,8.291,74.936,7.818,58.115,6.1,23.358,2.563,20.776,9.762,2.239,15.128-12.29,19.336-20.7,19.174-20.7,19.174s1.487-.772,2.277-1.251C-18.37,17.89,3.98,3.788,19.756.513" transform="translate(168.084 3.367)" fill="#e4501d"/>
    <path id="wave-left" d="M.085,4.537c-1.845.592,10.938,8.522,42.322,3.2,20.62-3.5,46.379-9.7,64.517,4.362,22.985,17.824,42.224,3.891,42.13,3.967,0,0-3.652,1-21.861-.485C100.487,13.411,96.369-9.689,68.835-3.8c-12.5,2.675-17.244,4.9-26.213,7.453C18.055,10.64,6.348,6.216.393,4.553a.724.724,0,0,0-.309-.016" transform="translate(1.354 4.756)" fill="#ff6f21"/>
    <path id="sulamerica" d="M-203.179,61.535A12.268,12.268,0,0,1-208,52.542l7.117.017c.444,2.318,1,3.06,2.243,3.936,1.523,1.075,2.886,1.458,5.519,1.427,5.437-.067,6.1-3.068,6.081-4.163-.094-7.4-20.218-2.632-20.79-15.623a9.881,9.881,0,0,1,3.564-8.081,14.075,14.075,0,0,1,9.349-3.406c4.149-.051,7.314.824,9.7,2.509a12.24,12.24,0,0,1,5.058,8.823l-4.089.01a3.32,3.32,0,0,1-3.316-1.887,4.57,4.57,0,0,0-1.5-1.888,9.946,9.946,0,0,0-5.676-1.435c-5.822,0-7.137,5.425-4.421,7.08,6.5,3.957,18.826,2.571,19.565,12.987.162,2.281-.778,11.743-13.374,11.743C-197.6,64.591-200.842,63.434-203.179,61.535Zm149.046-1.021c-2.374-2.533-3.547-6.123-3.547-10.609,0-4.541.973-7.843,3.267-10.365a12.937,12.937,0,0,1,9.791-4.333,12.472,12.472,0,0,1,9.518,3.93c2.7,2.98,3.674,6.14,3.756,11.049.006.314-.043,1.534-.043,1.577l-19.877-.01c.309,3.979,3,6.81,7,6.81,3.429,0,4.1-1.151,5.413-2.339a2.572,2.572,0,0,1,1.947-.754l5.155,0a12.088,12.088,0,0,1-4.749,6.9,14.3,14.3,0,0,1-8.379,2.212A12.018,12.018,0,0,1-54.132,60.514Zm2.972-13.566,12.755.023a6.029,6.029,0,0,0-6.169-5.933A6.5,6.5,0,0,0-51.16,46.949ZM.711,49.978C.711,40.5,7.253,35.1,14.128,35.1a12.911,12.911,0,0,1,9.59,3.819,12.916,12.916,0,0,1,2.507,4.561l-6.891.012s-.99-2.506-4.862-2.506c-3.04,0-7.391,1.261-7.391,8.679,0,1.956.659,8.8,7.3,8.8A6.131,6.131,0,0,0,18.59,57.2c1.5-1.211,1.259-1.78,3.766-1.77l4.414,0c-.554,2.794-3.605,9.112-12.735,9.112C4.35,64.54.711,56.27.711,49.978ZM32.07,62.408a8.188,8.188,0,0,1-3.324-6.9,7.4,7.4,0,0,1,3.078-6.095,11.463,11.463,0,0,1,6.138-2.354l3.055-.489c3.163-.418,4.784-1.294,4.784-2.751,0-2.228-2.912-2.769-4.545-2.769-3.538,0-4.431,1.75-4.6,2.5l-7.059,0a8.162,8.162,0,0,1,3.245-5.618,12.827,12.827,0,0,1,8.381-2.729,14.55,14.55,0,0,1,8.538,2.387,8.137,8.137,0,0,1,3.127,6.685l.022,20.032H48.616A2.16,2.16,0,0,1,46.744,63.1a10.865,10.865,0,0,1-4.334,1.337c-.837.064-1.611.093-2.329.093C35.993,64.526,33.722,63.563,32.07,62.408Zm9.593-10.916-2.476.45a4.657,4.657,0,0,0-2.736,1.21,3.546,3.546,0,0,0-.83,2.4,3.4,3.4,0,0,0,1.008,2.331,5.64,5.64,0,0,0,3.465,1.2c6.509,0,5.861-4.219,5.861-6.169V50.073C45,50.847,43.791,51.107,41.663,51.492Zm-218.362.4.022-16,7.334-.023.015,16.692c0,4.184,2.214,5.329,4.561,5.329a4.973,4.973,0,0,0,5.234-5.358l-.022-13.046a3.6,3.6,0,0,1,.928-2.568,4.022,4.022,0,0,1,3.011-1.053h3.213V51.379c0,7.961-3.389,13.126-12.044,13.126C-172.949,64.5-176.7,59.514-176.7,51.9Zm27.744,12.311V31.766c0-1.319.374-3.8,3.541-3.785.088,0,3.883,0,3.883,0l-.007,36.23Zm9.877-.006s11.644-32.705,11.984-33.664c.815-2.128,2.23-2.544,4.258-2.544h5.467l12.954,36.2H-112.1l-2.656-7.5-14.045.022-2.674,7.488ZM-126.5,50.288l9.5.006-.656-1.855-4.079-11.48Zm24.7,13.9-.009-16.629c0-4.676,1.53-7.844,3.865-9.623a14.515,14.515,0,0,1,8.075-2.753,14.7,14.7,0,0,1,4.565.644,11.824,11.824,0,0,1,4.3,2.9s2.3-3.483,8.206-3.483a12.43,12.43,0,0,1,7.951,2.689,11.518,11.518,0,0,1,4.523,9.65l0,16.607-3.642,0a3.946,3.946,0,0,1-2.758-.965,3.382,3.382,0,0,1-.994-2.525V46.67a4.472,4.472,0,0,0-1.607-3.715,5.527,5.527,0,0,0-3.4-1.133,5.536,5.536,0,0,0-3.4,1.133,4.389,4.389,0,0,0-1.428,3.715v17.5h-7.215l0-16.061V46.67a4.489,4.489,0,0,0-1.438-3.762,5.532,5.532,0,0,0-3.4-1.133,5.32,5.32,0,0,0-3.347,1.133A4.638,4.638,0,0,0-94.5,46.67l.015,17.523Zm92.108,0,.008-24.712A3.7,3.7,0,0,1-8.711,36.8a3.658,3.658,0,0,1,2.775-.943h3.7l-.01,28.331ZM-28.562,51.856c0-.352-.26-4.7.629-7.456,2.775-8.594,13.374-8.558,14.835-8.523l.167,0-.015,7.182S-21.2,42.45-21.2,48.213l-.025,15.939-7.33.012ZM-9.655,33.49l0-2.077A3.3,3.3,0,0,1-8.59,28.95a3.544,3.544,0,0,1,2.544-1.026h3.824l0,5.566Zm-37.01-.067,2.775-4.167a3.8,3.8,0,0,1,.839-1,1.923,1.923,0,0,1,1.26-.32h4.96l-4.94,4.935a2.086,2.086,0,0,1-1.57.557Z" transform="translate(208 1.944)" fill="#082b6d"/>
  </g>
</svg>
