<svg xmlns="http://www.w3.org/2000/svg" width="37" height="37" viewBox="0 0 37 37"><defs><style>.a{fill:#333;}.b,.d{fill:none;}.b{stroke:#333;stroke-linecap:round;stroke-width:3px;stroke-dasharray:112 10;}.c{stroke:none;}</style></defs><g transform="translate(-0.318)"><g transform="translate(10.683 9.086)"><g transform="translate(0 2.3)"><path class="a" d="M157.509,146.744a7.7,7.7,0,1,0-7.636,8.834,7.81,7.81,0,0,0,1.146-.085,7.7,7.7,0,0,0,6.49-8.75Zm-6.9,6a4.928,4.928,0,1,1,4.152-5.6A4.894,4.894,0,0,1,150.612,152.749Z" transform="translate(-142.185 -140.171)"/></g><g transform="translate(14.932 0)"><path class="a" d="M367.11,106.3a1.388,1.388,0,1,0,.406.981A1.4,1.4,0,0,0,367.11,106.3Z" transform="translate(-364.741 -105.893)"/></g></g><g class="b" transform="translate(0.318)"><rect class="c" width="37" height="37" rx="5"/><rect class="d" x="1.5" y="1.5" width="34" height="34" rx="3.5"/></g></g></svg>