<svg xmlns="http://www.w3.org/2000/svg" width="37" height="37" viewBox="0 0 37 37"><defs><style>.a{fill:#333;}.b,.d{fill:none;}.b{stroke:#333;stroke-linecap:round;stroke-width:3px;stroke-dasharray:112 10;}.c{stroke:none;}</style></defs><g transform="translate(12.909 7.474)"><path class="a" d="M33.8,0,30.877,0c-3.282,0-5.4,2.176-5.4,5.544V8.1H22.536a.459.459,0,0,0-.459.46v3.7a.459.459,0,0,0,.459.459h2.937v9.346a.459.459,0,0,0,.459.459h3.832a.459.459,0,0,0,.459-.459V12.723h3.434a.459.459,0,0,0,.459-.459V8.56a.46.46,0,0,0-.46-.46H30.225V5.933c0-1.042.248-1.57,1.6-1.57H33.8a.459.459,0,0,0,.459-.459V.464A.46.46,0,0,0,33.8,0Z" transform="translate(-22.077)"/></g><g class="b"><rect class="c" width="37" height="37" rx="5"/><rect class="d" x="1.5" y="1.5" width="34" height="34" rx="3.5"/></g></svg>